<svg xmlns="http://www.w3.org/2000/svg" xmlns:xlink="http://www.w3.org/1999/xlink" width="1920" zoomAndPan="magnify" viewBox="0 0 1440 809.999993" height="1080" preserveAspectRatio="xMidYMid meet" version="1.0"><path fill="#ffc7ea" d="M 548.574219 313.941406 C 548.574219 313.941406 629.371094 233.144531 629.371094 233.144531 C 629.371094 233.144531 725.984375 329.332031 725.984375 329.332031 C 725.984375 329.332031 824.953125 230.367188 824.953125 230.367188 C 824.953125 230.367188 905.75 311.164062 905.75 311.164062 C 905.75 311.164062 806.78125 410.128906 806.78125 410.128906 C 806.78125 410.128906 905.75 509.097656 905.75 509.097656 C 905.75 509.097656 824.953125 589.894531 824.953125 589.894531 C 824.953125 589.894531 725.984375 490.925781 725.984375 490.925781 C 725.984375 490.925781 625.308594 593.3125 625.308594 593.3125 C 625.308594 593.3125 544.511719 512.515625 544.511719 512.515625 C 544.511719 512.515625 645.1875 410.128906 645.1875 410.128906 C 645.1875 410.128906 548.574219 313.941406 548.574219 313.941406 Z M 548.574219 313.941406 " fill-opacity="1" fill-rule="nonzero"/><path stroke-linecap="butt" transform="matrix(0.4275, 0, 0, 0.4275, 713.587482, 398.587529)" fill-opacity="1" fill="#caedff" fill-rule="nonzero" stroke-linejoin="miter" d="M -414.998129 -225.003721 C -414.998129 -225.003721 -225.999592 -414.002258 -225.999592 -414.002258 C -225.999592 -414.002258 -0.00361362 -189.002259 -0.00361362 -189.002259 C -0.00361362 -189.002259 231.502233 -420.498968 231.502233 -420.498968 C 231.502233 -420.498968 420.50077 -231.500431 420.50077 -231.500431 C 420.50077 -231.500431 189.004061 -0.00372222 189.004061 -0.00372222 C 189.004061 -0.00372222 420.50077 231.502124 420.50077 231.502124 C 420.50077 231.502124 231.502233 420.500661 231.502233 420.500661 C 231.502233 420.500661 -0.00361362 189.003952 -0.00361362 189.003952 C -0.00361362 189.003952 -235.502516 428.49591 -235.502516 428.49591 C -235.502516 428.49591 -424.501053 239.497373 -424.501053 239.497373 C -424.501053 239.497373 -189.002151 -0.00372222 -189.002151 -0.00372222 C -189.002151 -0.00372222 -414.998129 -225.003721 -414.998129 -225.003721 Z M -414.998129 -225.003721 " stroke="#ffc7ea" stroke-width="10" stroke-opacity="1" stroke-miterlimit="10"/></svg>