<svg xmlns="http://www.w3.org/2000/svg" xmlns:xlink="http://www.w3.org/1999/xlink" width="1920" zoomAndPan="magnify" viewBox="0 0 1440 809.999993" height="1080" preserveAspectRatio="xMidYMid meet" version="1.0"><defs><clipPath id="c6c579b988"><path d="M 760 459.679688 L 846.871094 459.679688 L 846.871094 567 L 760 567 Z M 760 459.679688 " clip-rule="nonzero"/></clipPath></defs><path fill="#fbf0b2" d="M 818.148438 539.644531 C 812.433594 544.300781 806.53125 541.355469 802.636719 536.113281 C 794.28125 524.867188 787.234375 512.367188 779.621094 500.605469 C 771.894531 488.667969 764.113281 476.761719 756.476562 464.765625 C 750.90625 456.007812 744.828125 447.320312 739.472656 438.324219 C 706.625 454.097656 667.851562 451.246094 638.296875 424.398438 C 600.71875 390.257812 593.507812 330.53125 628.066406 291.523438 C 644.035156 273.496094 667.496094 254.558594 691.394531 249.136719 C 718.355469 243.019531 742.28125 255.976562 761.960938 273.398438 C 806.210938 312.578125 811.992188 374.609375 768.976562 417.359375 C 766.6875 419.636719 764.320312 421.792969 761.886719 423.832031 C 763.246094 426.886719 764.527344 429.980469 765.976562 432.777344 C 769.0625 438.734375 772.300781 444.613281 775.65625 450.425781 C 782.636719 462.507812 790.105469 474.320312 797.804688 485.953125 C 805.183594 497.109375 814.300781 507.957031 820.226562 519.964844 C 823.457031 526.511719 824.429688 534.527344 818.148438 539.644531 " fill-opacity="1" fill-rule="nonzero"/><g clip-path="url(#c6c579b988)"><path fill="#caedff" d="M 833.429688 555.132812 C 826.863281 559.375 817.90625 566.246094 809.914062 566.949219 C 802.628906 567.589844 797.914062 561.84375 794.9375 555.945312 C 792.644531 551.414062 790.082031 549.097656 793.828125 544.707031 C 794.058594 544.4375 794.296875 544.175781 794.542969 543.914062 C 790.605469 537.605469 787.203125 529.554688 785.039062 526.042969 C 779.382812 516.867188 773.804688 507.535156 767.730469 498.839844 C 762.835938 491.824219 762.253906 488.105469 766.683594 484.316406 C 762.828125 481.046875 759.554688 476.28125 760.164062 472.917969 C 761.109375 467.695312 775.824219 461.84375 780.261719 460.144531 C 785.214844 458.242188 789.308594 465.414062 790.433594 470.984375 C 791.992188 470.796875 793.53125 470.914062 795.011719 471.453125 C 800.675781 473.53125 803.976562 482.347656 806.914062 487.007812 C 813.945312 498.167969 821.59375 509.003906 828.886719 519.996094 C 829.152344 520.390625 829.398438 520.777344 829.636719 521.152344 C 831.367188 520.53125 833.121094 520.269531 834.863281 520.621094 C 840.808594 521.820312 845.460938 532.121094 846.609375 537.449219 C 848.503906 546.226562 839.746094 551.050781 833.429688 555.132812 " fill-opacity="1" fill-rule="nonzero"/></g><path fill="#ffc7ea" d="M 713.839844 419.675781 C 675.742188 428.183594 641.628906 407.085938 631.890625 373.222656 C 620.605469 333.992188 640.90625 293.488281 683.519531 278.183594 C 720.660156 264.84375 760.8125 301.1875 772.074219 330.761719 C 786.023438 367.390625 752.546875 411.03125 713.839844 419.675781 " fill-opacity="1" fill-rule="nonzero"/><path fill="#d8b4f8" d="M 772.917969 465.015625 C 770.480469 465.921875 768.007812 466.832031 765.71875 468.078125 C 764.074219 468.976562 762.738281 470.113281 760.949219 470.6875 C 760.636719 470.789062 760.304688 470.457031 760.40625 470.140625 C 761.59375 466.46875 766.136719 464.679688 769.433594 463.300781 C 773.011719 461.800781 778.453125 458.515625 782.339844 459.328125 C 782.738281 459.410156 783.003906 459.984375 782.746094 460.324219 C 780.617188 463.15625 776.140625 463.820312 772.917969 465.015625 Z M 753.601562 432.246094 C 748.984375 435.171875 743.496094 439.046875 738.03125 439.984375 C 737.613281 440.058594 737.273438 439.585938 737.601562 439.246094 C 741.300781 435.417969 746.957031 433.195312 751.445312 430.359375 C 755.980469 427.496094 760.089844 423.175781 764.984375 421.125 C 765.617188 420.859375 766.113281 421.707031 765.824219 422.214844 C 763.390625 426.535156 757.695312 429.644531 753.601562 432.246094 Z M 806.296875 534.402344 C 805.144531 530.222656 801.886719 526.242188 799.683594 522.636719 C 796.609375 517.601562 793.503906 512.585938 790.371094 507.585938 C 785.007812 499.03125 779.949219 489.617188 773.476562 481.789062 C 775.957031 480.566406 778.417969 479.289062 780.886719 478.085938 C 782.09375 477.496094 783.46875 476.964844 784.816406 476.359375 C 786.605469 480.988281 789.578125 485.117188 792.152344 489.339844 C 795.242188 494.402344 798.34375 499.453125 801.417969 504.523438 C 804.320312 509.316406 807.195312 514.121094 810.046875 518.941406 C 811.9375 522.136719 813.539062 525.855469 816.035156 528.660156 C 814.75 529.496094 813.492188 530.3125 812.273438 531.015625 C 810.320312 532.152344 808.300781 533.253906 806.296875 534.402344 Z M 826.898438 523.054688 C 824.105469 523.738281 821.339844 525.277344 818.667969 526.960938 C 817.519531 523.773438 815.355469 520.882812 813.632812 517.996094 C 810.59375 512.902344 807.523438 507.828125 804.421875 502.769531 C 801.496094 497.996094 798.546875 493.234375 795.523438 488.515625 C 792.699219 484.117188 790.117188 479.34375 786.492188 475.550781 C 788.042969 474.722656 789.445312 473.726562 790.34375 472.328125 C 790.640625 471.871094 790.242188 471.367188 789.769531 471.328125 C 785.796875 470.996094 781.386719 474.347656 777.933594 476.074219 C 774.34375 477.871094 770.613281 479.570312 768.210938 482.886719 C 767.761719 483.503906 768.597656 484.054688 769.140625 483.816406 C 769.910156 483.480469 770.675781 483.121094 771.441406 482.765625 C 776.175781 492.535156 782.988281 501.636719 788.640625 510.871094 C 791.550781 515.625 794.433594 520.390625 797.296875 525.171875 C 799.378906 528.65625 801.128906 532.835938 804.054688 535.707031 C 801.445312 537.261719 798.914062 538.921875 796.625 540.832031 C 795.878906 541.457031 796.675781 542.789062 797.582031 542.472656 C 804.222656 540.148438 810.425781 536.050781 816.550781 532.632812 C 819.878906 530.777344 827.890625 528.425781 827.800781 523.738281 C 827.789062 523.269531 827.351562 522.941406 826.898438 523.054688 " fill-opacity="1" fill-rule="nonzero"/><path fill="#ffffff" d="M 685.785156 436.300781 C 682.820312 433.742188 678.933594 433.335938 675.28125 432.1875 C 670.734375 430.761719 666.316406 428.910156 662.132812 426.628906 C 654.195312 422.292969 647.75 416.371094 640.605469 410.957031 C 639.582031 410.179688 638.558594 411.625 639.007812 412.550781 C 643.023438 420.882812 651.101562 427.46875 658.980469 432.007812 C 662.890625 434.261719 667.03125 436.171875 671.304688 437.625 C 675.488281 439.046875 680.683594 441.070312 684.992188 439.308594 C 686.128906 438.84375 686.925781 437.285156 685.785156 436.300781 Z M 747.8125 383.597656 C 747.59375 382.523438 746.285156 381.863281 745.277344 382.160156 C 742.390625 383.019531 740.761719 385.339844 738.515625 387.203125 C 735.417969 389.769531 731.695312 391.539062 728.132812 393.367188 C 719.390625 397.851562 710.921875 401.082031 701 401.632812 C 699.390625 401.722656 698.328125 404.203125 700.09375 404.988281 C 710.253906 409.5 720.746094 405.003906 730.136719 400.460938 C 736.109375 397.578125 749.515625 392.085938 747.8125 383.597656 Z M 654.171875 391.832031 C 659.089844 396.976562 668.207031 403.558594 675.667969 400.558594 C 677.832031 399.6875 678.109375 397.257812 676.28125 395.863281 C 673.496094 393.738281 670.097656 392.964844 667.03125 391.320312 C 663.742188 389.554688 660.890625 387.148438 658.457031 384.328125 C 653.546875 378.636719 650.855469 371.363281 649.339844 364.097656 C 647.726562 356.367188 647.691406 348.351562 648.972656 340.566406 C 650.289062 332.605469 653.734375 325.671875 656.230469 318.101562 C 656.753906 316.515625 654.605469 315.378906 653.484375 316.507812 C 640.984375 329.074219 638.890625 352.171875 642.496094 368.59375 C 644.363281 377.09375 648.097656 385.484375 654.171875 391.832031 Z M 697.617188 262.113281 C 693.40625 262.390625 689.148438 262.796875 685.042969 263.796875 C 681.980469 264.542969 678.941406 266.027344 675.796875 266.394531 C 672.402344 266.789062 671.234375 265.328125 673.675781 262.546875 C 675.296875 260.703125 678.117188 259.605469 680.367188 258.804688 C 690.800781 255.082031 703.164062 253.914062 714.203125 254.699219 C 721.222656 255.195312 733.484375 256.773438 734.996094 265.429688 C 736.121094 271.894531 721.625 263.757812 719.648438 263.183594 C 712.613281 261.144531 704.835938 261.636719 697.617188 262.113281 " fill-opacity="1" fill-rule="nonzero"/></svg>